<?xml version="1.0" encoding="UTF-8" standalone="no"?>
<!DOCTYPE svg PUBLIC "-//W3C//DTD SVG 1.1//EN" "http://www.w3.org/Graphics/SVG/1.1/DTD/svg11.dtd">
<svg width="100%" height="100%" viewBox="0 0 512 512" version="1.1" xmlns="http://www.w3.org/2000/svg" xmlns:xlink="http://www.w3.org/1999/xlink" xml:space="preserve" xmlns:serif="http://www.serif.com/" style="fill-rule:evenodd;clip-rule:evenodd;stroke-linejoin:round;stroke-miterlimit:2;">
    <g>
        <g transform="matrix(2.42654,0,0,2.97674,-55.8104,-315.535)">
            <path d="M234,122.907C234,113.576 224.707,106 213.26,106L43.74,106C32.293,106 23,113.576 23,122.907L23,261.093C23,270.424 32.293,278 43.74,278L213.26,278C224.707,278 234,270.424 234,261.093L234,122.907Z" style="fill:rgb(0,201,183);"/>
        </g>
        <g transform="matrix(1,0,0,1,-5.64697,38.8135)">
            <g transform="matrix(1,0,0,1,-0.235352,-7.20898)">
                <g transform="matrix(0.967742,0,0,1.01695,76.6129,9.25424)">
                    <g>
                        <ellipse cx="329" cy="132.5" rx="31" ry="29.5" style="fill:white;"/>
                    </g>
                </g>
                <g transform="matrix(0.714327,0,0,0.714327,125.583,64.0798)">
                    <path d="M373.148,144L373.148,115.897L345.044,115.897L345.044,107.867L373.148,107.867L373.148,79.764L381.177,79.764L381.177,107.867L409.28,107.867L409.28,115.897L381.177,115.897L381.177,144L373.148,144Z" style="fill:rgb(0,201,183);fill-rule:nonzero;"/>
                </g>
            </g>
            <g transform="matrix(1,0,0,1,-59.9571,110.31)">
                <path d="M158.486,217.272L158.486,72.74L195.986,72.74C210.439,72.74 221.523,75.475 229.238,80.943C236.953,86.412 240.811,94.29 240.811,104.576C240.811,122.089 230.915,134.557 211.123,141.979C234.756,149.205 246.572,162.259 246.572,181.139C246.572,192.858 242.666,201.809 234.854,207.994C227.041,214.179 215.778,217.272 201.064,217.272L158.486,217.272ZM178.799,201.94L182.998,201.94C198.037,201.94 207.77,200.996 212.197,199.108C220.661,195.527 224.893,188.886 224.893,179.186C224.893,170.592 221.051,163.447 213.369,157.75C205.687,152.053 196.084,149.205 184.561,149.205L178.799,149.205L178.799,201.94ZM178.799,136.217L185.342,136.217C196.279,136.217 204.759,133.873 210.781,129.186C216.803,124.498 219.814,117.89 219.814,109.361C219.814,95.169 208.812,88.072 186.807,88.072L178.799,88.072L178.799,136.217Z" style="fill:white;fill-rule:nonzero;"/>
                <path d="M273.525,217.272L273.525,72.74L301.943,72.74L341.982,184.557L383.193,72.74L408.584,72.74L408.584,217.272L389.443,217.272L389.443,99.693L349.6,207.604L329.775,207.604L291.104,99.4L291.104,217.272L273.525,217.272Z" style="fill:white;fill-rule:nonzero;"/>
                <rect x="445.693" y="72.74" width="20.508" height="144.531" style="fill:white;fill-rule:nonzero;"/>
            </g>
        </g>
    </g>
</svg>
